<?xml version="1.0" standalone="no"?>
<!DOCTYPE svg PUBLIC "-//W3C//DTD SVG 20010904//EN"
 "http://www.w3.org/TR/2001/REC-SVG-20010904/DTD/svg10.dtd">
<svg version="1.0" xmlns="http://www.w3.org/2000/svg"
 width="512.000000pt" height="512.000000pt" viewBox="0 0 512.000000 512.000000"
 preserveAspectRatio="xMidYMid meet">

<g transform="translate(0.000000,512.000000) scale(0.100000,-0.100000)"
fill="#000000" stroke="none">
<path d="M2905 4901 c-16 -10 -239 -229 -495 -485 l-465 -466 -48 0 c-227 0
-535 -75 -766 -185 -245 -118 -366 -208 -639 -479 -177 -175 -218 -221 -244
-274 -96 -194 -2 -437 200 -517 24 -10 41 -23 38 -29 -2 -6 -113 -257 -245
-558 -133 -301 -241 -556 -241 -567 0 -52 48 -101 99 -101 18 0 356 145 931
400 102 45 190 84 196 87 6 2 19 -15 29 -39 60 -151 210 -245 375 -236 108 6
173 39 274 138 l82 80 21 -22 c12 -13 37 -55 56 -94 66 -132 157 -255 276
-375 216 -216 463 -348 762 -409 53 -11 112 -20 131 -20 67 0 75 -7 82 -68 12
-107 72 -194 164 -241 20 -10 217 -67 437 -127 453 -122 509 -130 595 -85 56
29 116 85 140 131 10 20 44 131 74 247 55 204 56 213 42 248 -17 41 -70 69
-111 59 -53 -13 -69 -44 -119 -236 -62 -233 -67 -244 -110 -265 l-35 -16 -408
109 c-450 120 -467 127 -467 195 1 39 428 1639 449 1679 8 15 28 33 46 40 29
12 60 6 418 -89 212 -57 404 -111 427 -121 28 -12 45 -27 54 -49 12 -30 9 -50
-43 -246 -32 -117 -57 -224 -57 -238 0 -14 12 -39 26 -56 22 -26 33 -31 69
-31 78 0 87 15 156 270 69 256 72 305 26 396 -25 49 -83 110 -127 134 -33 17
-829 230 -886 237 -60 6 -144 -15 -195 -50 l-35 -24 -100 186 c-169 316 -242
429 -375 577 -64 72 -174 175 -239 226 l-35 26 287 289 c287 288 308 314 294
366 -3 12 -157 174 -343 360 -368 367 -360 361 -428 318z m140 -311 l80 -80
-1113 -1113 -1112 -1112 -82 83 -83 82 1110 1110 c610 611 1112 1110 1115
1110 3 0 41 -36 85 -80z m310 -310 l80 -80 -697 -697 -696 -696 -40 31 c-42
34 -137 82 -162 82 -8 0 309 324 705 720 396 396 722 720 725 720 3 0 41 -36
85 -80z m-2145 -1065 c-283 -283 -529 -522 -547 -530 -113 -54 -253 34 -253
160 0 66 27 106 183 263 249 252 407 374 612 472 158 76 388 147 485 149 33 1
12 -22 -480 -514z m1824 146 c113 -93 247 -241 329 -364 86 -129 367 -645 367
-673 0 -10 -83 -325 -183 -699 l-183 -680 -69 3 c-280 10 -595 153 -811 367
-105 105 -178 204 -241 330 -44 87 -54 99 -368 415 -177 179 -331 341 -341
360 -27 54 -24 136 7 195 35 70 92 107 168 113 109 8 105 10 466 -349 227
-226 340 -332 360 -337 43 -11 70 -4 99 25 20 20 26 36 26 71 l0 45 -237 239
-237 238 379 380 c209 209 384 380 388 380 5 0 41 -27 81 -59z m-1704 -963 c0
-25 48 -115 80 -152 l33 -38 -116 -116 -117 -117 -82 83 -83 82 135 135 c74
74 138 135 142 135 5 0 8 -6 8 -12z m-308 -538 c-4 -4 -144 -67 -312 -140
-168 -73 -328 -144 -357 -156 l-52 -23 18 42 c10 23 76 173 146 332 70 160
134 305 142 324 l15 34 204 -204 c112 -112 200 -206 196 -209z m698 75 l125
-125 -60 -60 c-93 -94 -169 -120 -248 -86 -39 16 -82 61 -96 99 -14 36 -14 98
-1 133 10 25 136 164 149 164 4 0 62 -56 131 -125z"/>
<path d="M4729 1322 c-28 -25 -34 -37 -34 -72 0 -35 6 -47 33 -71 36 -32 69
-36 112 -14 85 44 60 169 -36 182 -36 5 -46 1 -75 -25z"/>
</g>
</svg>
